<?xml version="1.0" encoding="utf-8"?>
<!-- Generator: Adobe Illustrator 25.0.1, SVG Export Plug-In . SVG Version: 6.00 Build 0)  -->
<svg version="1.1" id="圖層_1" xmlns="http://www.w3.org/2000/svg" xmlns:xlink="http://www.w3.org/1999/xlink" x="0px" y="0px"
	 viewBox="0 0 20 20" style="enable-background:new 0 0 20 20;" xml:space="preserve">
<style type="text/css">
	.st0{fill:#FFFFFF;}
</style>
<g>
	<path class="st0" d="M20,18.05c0,0.13,0,0.26,0,0.39c-0.01,0.06-0.03,0.11-0.04,0.17c-0.19,0.73-0.74,1.2-1.49,1.25
		c-0.53,0.04-0.96-0.18-1.32-0.55c-1.43-1.43-2.86-2.86-4.29-4.29c-0.05-0.05-0.11-0.1-0.16-0.16c-0.12,0.08-0.23,0.15-0.33,0.21
		c-1.71,1.06-3.56,1.44-5.53,1.13c-1.91-0.3-3.52-1.2-4.8-2.65c-0.97-1.09-1.6-2.36-1.87-3.8c-0.06-0.33-0.1-0.67-0.15-1
		C0,8.4,0,8.05,0,7.7c0.01-0.06,0.03-0.12,0.03-0.19c0.05-0.32,0.07-0.65,0.14-0.96c0.52-2.29,1.78-4.06,3.8-5.27
		C5.74,0.21,7.66-0.09,9.68,0.3c1.8,0.35,3.3,1.25,4.5,2.63c1.13,1.3,1.79,2.81,1.95,4.53c0.16,1.74-0.21,3.37-1.1,4.88
		c-0.08,0.13-0.07,0.2,0.04,0.31c1.4,1.39,2.79,2.79,4.19,4.18C19.6,17.18,19.91,17.55,20,18.05z M13.55,8.22
		c-0.01-3.02-2.49-5.48-5.47-5.45C5.04,2.79,2.6,5.24,2.62,8.24c0.02,3.02,2.48,5.46,5.48,5.44C11.12,13.66,13.56,11.21,13.55,8.22z
		"/>
</g>
</svg>
